<svg width="149" height="132" viewBox="0 0 149 132" fill="none" xmlns="http://www.w3.org/2000/svg">
<path fill-rule="evenodd" clip-rule="evenodd" d="M96.4316 1.04779C106.6 -0.767102 116.715 -0.35553 126.511 3.31928C132.689 5.63539 138.169 9.01449 142.243 14.3437C146.201 19.522 148.16 25.376 148.02 31.9189C147.82 41.1382 144.038 48.8722 138.134 55.7031C132.265 62.4908 125.027 67.5067 117.122 71.6064C104.656 78.075 91.3181 81.7083 77.4678 83.6035C74.3396 84.0322 71.1899 84.2989 67.96 84.6494C68.005 87.4859 68.6349 90.2207 69.958 92.7636C73.1255 98.8563 78.3704 101.68 85.0439 101.935C92.8882 102.234 99.5386 99.3094 105.253 94.0351C108.653 90.8968 111.257 87.1922 113.42 83.1259C113.794 82.4231 114.591 81.7946 115.337 81.4814C116.337 81.0625 117.472 80.8742 118.564 80.7841C122.339 80.4787 126.123 80.3401 129.878 81.0136C130.737 81.1683 131.591 81.4328 132.403 81.7578C135.719 83.0832 137.225 85.7982 136.659 89.332C135.864 94.2891 134.034 98.8607 131.524 103.182C126.54 111.761 119.612 118.429 111.13 123.435C100.77 129.548 89.5131 132.365 77.4658 131.962C68.9014 131.674 60.7439 129.801 53.1699 125.711C41.2733 119.285 34.182 109.2 31.085 96.2119C30.2785 92.8328 29.9787 89.3343 29.4521 85.8906C29.3895 85.4755 29.3527 85.0557 29.2979 84.5878C26.4358 84.255 23.6812 83.9637 20.9346 83.6132C16.0381 82.9885 8.63621 81.1387 3.01758 79.6161C1.84423 79.2982 0.805682 78.6714 0 77.829V57.8984C0.594936 57.7458 1.24167 57.7388 1.88477 57.912C6.64663 59.1951 11.4982 60.1425 16.4033 60.871C27.5383 62.5253 38.7379 63.0112 49.9688 62.3964C63.3473 61.6661 76.4622 59.4833 89.0186 54.6005C94.6643 52.4058 100.046 49.7113 104.75 45.8251C107.416 43.6226 109.766 41.1475 111.001 37.8271C112.751 33.1227 110.687 29.0209 105.822 27.6035C102.054 26.5053 98.3248 26.9895 94.6484 28.0996C88.7795 29.8733 83.9461 33.2717 79.7939 37.7001C75.816 41.9427 72.9376 46.8688 70.7881 52.2509C70.6373 52.6267 70.2108 53.0436 69.8291 53.1513C61.9789 55.3715 53.9739 56.5992 45.8164 56.7617C42.3945 56.8302 38.9707 56.8065 35.5469 56.8222C35.1893 56.8222 34.9474 56.449 35.0479 56.1054C35.1735 55.6763 35.2933 55.2695 35.4375 54.872C39.5544 43.5443 45.5718 33.346 53.8818 24.6005C65.5729 12.2956 79.6134 4.04915 96.4316 1.04779Z" fill="url(#paint0_linear_141_271)"/>
<defs>
<linearGradient id="paint0_linear_141_271" x1="160.96" y1="18.3839" x2="57.3309" y2="85.7651" gradientUnits="userSpaceOnUse">
<stop offset="0.176" stop-color="#0052CC"/>
<stop offset="1" stop-color="#2684FF"/>
</linearGradient>
</defs>
</svg>
