<svg width="283" height="41" viewBox="0 0 283 41" fill="none" xmlns="http://www.w3.org/2000/svg">
<path d="M58.5889 8.34863C60.1703 8.34863 61.5609 8.66798 62.7598 9.30566C63.9585 9.91781 64.9022 10.7211 65.5908 11.7158V9.88867C65.591 9.22858 66.1261 8.69358 66.7861 8.69336H69.79C70.4503 8.69338 70.9852 9.22846 70.9854 9.88867V30.043C70.9853 32.0068 70.5904 33.7539 69.7998 35.2842C69.0091 36.8401 67.8227 38.0653 66.2412 38.958C64.6598 39.8762 62.7465 40.335 60.502 40.335C57.4923 40.3349 55.0185 39.6332 53.0801 38.2305C51.5252 37.0902 50.5172 35.6131 50.0576 33.7988C49.8834 33.1108 50.4455 32.4914 51.1553 32.4912H54.2471C54.7794 32.4912 55.2296 32.8552 55.4902 33.3193C55.8204 33.9074 56.3054 34.3966 56.9443 34.7871C57.8881 35.3737 59.0234 35.667 60.3496 35.667C61.9051 35.6669 63.1676 35.1954 64.1367 34.252C65.106 33.3337 65.5908 31.9304 65.5908 30.043V26.752C64.9022 27.7467 63.9459 28.5761 62.7217 29.2393C61.5228 29.9024 60.1448 30.2344 58.5889 30.2344C56.8035 30.2343 55.1707 29.7747 53.6914 28.8564C52.2122 27.9382 51.039 26.65 50.1719 24.9922C49.3302 23.3087 48.9092 21.3829 48.9092 19.2148C48.9092 17.0723 49.3302 15.1716 50.1719 13.5137C51.039 11.856 52.1997 10.5811 53.6533 9.68848C55.1327 8.79577 56.778 8.34868 58.5889 8.34863ZM10.6357 8.34863C12.6508 8.34863 14.4498 8.78217 16.0312 9.64941C17.6381 10.5167 18.875 11.7544 19.7422 13.3613C20.6348 14.9426 21.081 16.7662 21.0811 18.832C21.0811 19.2035 21.069 19.5572 21.0449 19.8926C21.0031 20.4756 20.4995 20.8984 19.915 20.8984H5.43262C5.56015 22.4289 6.09627 23.6279 7.04004 24.4951C7.98375 25.3622 9.14424 25.7959 10.5215 25.7959C12.2427 25.7959 13.5344 25.1562 14.3965 23.877C14.6509 23.4994 15.0564 23.2326 15.5117 23.2324H18.9385C19.7394 23.2324 20.3139 24.0086 19.9648 24.7295C19.2956 26.1115 18.3158 27.2964 17.0254 28.2832C15.291 29.5839 13.1608 30.2344 10.6357 30.2344C8.59536 30.2343 6.75929 29.7872 5.12695 28.8945C3.52 27.9763 2.25713 26.6882 1.33887 25.0303C0.446261 23.3725 6.47148e-05 21.4598 0 19.292C0 17.0984 0.446115 15.1716 1.33887 13.5137C2.23152 11.8561 3.4813 10.5811 5.08789 9.68848C6.69475 8.79577 8.5443 8.34868 10.6357 8.34863ZM121.421 8.34863C123.436 8.34868 125.234 8.78225 126.815 9.64941C128.422 10.5167 129.659 11.7544 130.526 13.3613C131.419 14.9427 131.866 16.7661 131.866 18.832C131.866 19.2034 131.854 19.5572 131.83 19.8926C131.788 20.4755 131.285 20.8983 130.7 20.8984H116.217C116.344 22.4289 116.88 23.6279 117.824 24.4951C118.768 25.3622 119.928 25.7959 121.306 25.7959C123.027 25.7959 124.32 25.1564 125.182 23.877C125.436 23.4992 125.841 23.2324 126.297 23.2324H129.723C130.524 23.2324 131.099 24.0086 130.75 24.7295C130.081 26.1116 129.101 27.2964 127.811 28.2832C126.076 29.584 123.946 30.2343 121.421 30.2344C119.38 30.2344 117.544 29.7873 115.911 28.8945C114.304 27.9763 113.041 26.6882 112.123 25.0303C111.23 23.3725 110.784 21.4598 110.784 19.292C110.784 17.0984 111.23 15.1716 112.123 13.5137C113.016 11.8558 114.266 10.5812 115.873 9.68848C117.48 8.79574 119.329 8.34863 121.421 8.34863ZM145.035 8.34863C147.05 8.3487 148.848 8.78224 150.43 9.64941C152.037 10.5167 153.273 11.7544 154.141 13.3613C155.033 14.9427 155.479 16.7662 155.479 18.832C155.479 19.2035 155.467 19.5572 155.443 19.8926C155.402 20.4754 154.899 20.8982 154.314 20.8984H139.831C139.959 22.4289 140.495 23.6279 141.438 24.4951C142.382 25.3622 143.543 25.7959 144.92 25.7959C146.641 25.7959 147.933 25.1562 148.795 23.877C149.049 23.4992 149.456 23.2324 149.911 23.2324H153.337C154.138 23.2324 154.713 24.0086 154.364 24.7295C153.695 26.1117 152.714 27.2964 151.424 28.2832C149.69 29.5838 147.56 30.2343 145.035 30.2344C142.995 30.2344 141.158 29.7873 139.525 28.8945C137.918 27.9763 136.656 26.6882 135.737 25.0303C134.845 23.3725 134.398 21.4598 134.398 19.292C134.398 17.0984 134.845 15.1716 135.737 13.5137C136.63 11.8559 137.88 10.5812 139.487 9.68848C141.094 8.79578 142.944 8.34863 145.035 8.34863ZM182.587 8.34863C185.112 8.34863 187.127 8.98657 188.632 10.2617C189.826 11.2534 190.594 12.5264 190.938 14.0801C191.087 14.7577 190.529 15.3506 189.835 15.3506H187.084C186.466 15.3505 185.983 14.8571 185.709 14.3027C185.528 13.9368 185.265 13.6231 184.921 13.3613C184.309 12.8512 183.479 12.5957 182.434 12.5957C181.465 12.5958 180.712 12.7748 180.177 13.1318C179.667 13.4889 179.411 13.9864 179.411 14.624C179.411 15.3379 179.769 15.886 180.482 16.2686C181.197 16.6257 182.307 16.9963 183.812 17.3789C185.342 17.7615 186.605 18.1564 187.6 18.5645C188.594 18.9726 189.449 19.6104 190.163 20.4775C190.903 21.3193 191.285 22.4419 191.311 23.8447C191.311 25.069 190.966 26.1656 190.277 27.1348C189.614 28.1039 188.645 28.8695 187.37 29.4307C186.12 29.9663 184.653 30.2344 182.97 30.2344C181.235 30.2344 179.679 29.9276 178.302 29.3154C176.924 28.6778 175.828 27.8232 175.012 26.752C174.482 26.0345 174.113 25.2657 173.903 24.4453C173.733 23.7788 174.291 23.1944 174.979 23.1943H178.05C178.653 23.1943 179.134 23.6632 179.414 24.1973C179.616 24.5821 179.908 24.9237 180.291 25.2217C181.005 25.7573 181.886 26.0254 182.932 26.0254C183.952 26.0254 184.743 25.8212 185.304 25.4131C185.89 25.005 186.184 24.4823 186.184 23.8447C186.184 23.1561 185.826 22.646 185.112 22.3145C184.424 21.9574 183.314 21.5741 181.783 21.166C180.202 20.7834 178.901 20.3885 177.881 19.9805C176.886 19.5724 176.019 18.9472 175.279 18.1055C174.565 17.2637 174.208 16.1286 174.208 14.7002C174.208 13.5269 174.54 12.4556 175.203 11.4863C175.892 10.5172 176.861 9.75155 178.11 9.19043C179.386 8.62929 180.878 8.34865 182.587 8.34863ZM225.781 8.57812C227.771 8.57814 229.531 9.01168 231.062 9.87891C232.592 10.7461 233.765 11.9453 234.581 13.4756C235.423 14.9804 235.844 16.6896 235.844 18.6025C235.844 18.936 235.834 19.28 235.814 19.6328C235.781 20.2444 235.263 20.707 234.65 20.707H218.971C219.098 22.7731 219.8 24.3931 221.075 25.5664C222.376 26.7142 223.945 27.2881 225.781 27.2881C227.286 27.2881 228.536 26.9434 229.53 26.2549C230.313 25.7067 230.916 25.0228 231.339 24.2041C231.572 23.752 232.015 23.4238 232.523 23.4238H233.849C234.64 23.4238 235.214 24.1822 234.881 24.8994C234.25 26.2572 233.308 27.4108 232.056 28.3594C230.372 29.6091 228.281 30.2344 225.781 30.2344C223.792 30.2344 222.006 29.7873 220.425 28.8945C218.869 28.0018 217.645 26.7397 216.752 25.1074C215.859 23.4495 215.412 21.5362 215.412 19.3682C215.412 17.2001 215.846 15.2994 216.713 13.667C217.58 12.0347 218.792 10.7852 220.348 9.91797C221.929 9.02522 223.741 8.57812 225.781 8.57812ZM249.354 8.57812C251.93 8.57816 254.047 9.20349 255.705 10.4531C257.003 11.417 257.961 12.6695 258.576 14.21C258.863 14.9286 258.289 15.6572 257.516 15.6572H256.191C255.655 15.6572 255.197 15.2934 254.977 14.8047C254.58 13.9242 253.981 13.2002 253.181 12.6338C252.16 11.8941 250.885 11.5244 249.354 11.5244C247.365 11.5244 245.758 12.2134 244.533 13.5908C243.309 14.9427 242.697 16.8686 242.697 19.3682C242.697 21.8932 243.309 23.8443 244.533 25.2217C245.758 26.5991 247.365 27.2881 249.354 27.2881C250.885 27.2881 252.16 26.931 253.181 26.2168C253.972 25.6626 254.572 24.9237 254.979 24.001C255.195 23.5139 255.652 23.1562 256.185 23.1562H257.485C258.269 23.1564 258.843 23.9008 258.535 24.6211C257.904 26.098 256.948 27.3316 255.667 28.3213C253.984 29.5965 251.879 30.2343 249.354 30.2344C247.365 30.2344 245.592 29.7873 244.036 28.8945C242.506 28.0018 241.307 26.7398 240.439 25.1074C239.572 23.475 239.139 21.5617 239.139 19.3682C239.139 17.2001 239.572 15.312 240.439 13.7051C241.307 12.0728 242.506 10.8107 244.036 9.91797C245.592 9.02522 247.365 8.57812 249.354 8.57812ZM36.7373 8.38672C39.2624 8.38675 41.3025 9.19101 42.8584 10.7979C44.4143 12.3793 45.1924 14.5983 45.1924 17.4551V28.6943C45.1923 29.3546 44.6573 29.8896 43.9971 29.8896H41.0322C40.372 29.8896 39.8361 29.3546 39.8359 28.6943V18.1816C39.8359 16.4983 39.4149 15.2101 38.5732 14.3174C37.7315 13.3993 36.5836 12.9404 35.1299 12.9404C33.6507 12.9405 32.4775 13.3993 31.6104 14.3174C30.7687 15.2101 30.3477 16.4983 30.3477 18.1816V28.6943C30.3475 29.3544 29.8124 29.8894 29.1523 29.8896H26.1865C25.5264 29.8895 24.9913 29.3545 24.9912 28.6943V9.88867C24.9913 9.22852 25.5264 8.69347 26.1865 8.69336H29.1523C29.8124 8.69358 30.3475 9.22858 30.3477 9.88867V11.333C31.0618 10.4148 31.9677 9.70054 33.0645 9.19043C34.1867 8.65489 35.4111 8.38672 36.7373 8.38672ZM80.3779 8.69336C81.0382 8.69336 81.5741 9.22845 81.5742 9.88867V28.6943C81.5741 29.3546 81.0382 29.8896 80.3779 29.8896H77.4131C76.7528 29.8896 76.2169 29.3546 76.2168 28.6943V9.88867C76.2169 9.22845 76.7528 8.69336 77.4131 8.69336H80.3779ZM98.6123 8.38672C101.137 8.38677 103.178 9.191 104.733 10.7979C106.289 12.3793 107.067 14.5983 107.067 17.4551V28.6943C107.067 29.3546 106.532 29.8896 105.872 29.8896H102.907C102.247 29.8896 101.711 29.3546 101.711 28.6943V18.1816C101.711 16.4983 101.29 15.2101 100.448 14.3174C99.6065 13.3993 98.4586 12.9404 97.0049 12.9404C95.5257 12.9405 94.3525 13.3993 93.4854 14.3174C92.6437 15.2101 92.2227 16.4983 92.2227 18.1816V28.6943C92.2225 29.3544 91.6874 29.8894 91.0273 29.8896H88.0615C87.4013 29.8896 86.8663 29.3545 86.8662 28.6943V9.88867C86.8663 9.22849 87.4013 8.69342 88.0615 8.69336H91.0264C91.6866 8.69336 92.2225 9.22845 92.2227 9.88867V11.333C92.9368 10.4149 93.8427 9.70053 94.9395 9.19043C96.0616 8.65492 97.2861 8.38672 98.6123 8.38672ZM170.059 8.46582C170.713 8.37668 171.251 8.92276 171.251 9.58301V12.8154C171.251 13.4758 170.715 14.0117 170.055 14.0117H169.835C168.152 14.0117 166.876 14.4066 166.009 15.1973C165.167 15.988 164.746 17.366 164.746 19.3301V28.6943C164.746 29.3545 164.211 29.8895 163.551 29.8896H160.585C159.925 29.8895 159.39 29.3545 159.39 28.6943V9.88867C159.39 9.22857 159.925 8.69355 160.585 8.69336H163.551C164.211 8.6935 164.746 9.22853 164.746 9.88867V11.9834C165.435 10.8612 166.328 9.98139 167.425 9.34375C168.225 8.8892 169.103 8.5963 170.059 8.46582ZM211.231 3.22168C211.892 3.22168 212.428 3.75763 212.428 4.41797V4.85742C212.428 5.51776 211.892 6.05371 211.231 6.05371H205.158V28.6943C205.158 29.3546 204.622 29.8896 203.962 29.8896H202.872C202.212 29.8896 201.676 29.3546 201.676 28.6943V6.05371H195.564C194.904 6.05371 194.368 5.51776 194.368 4.85742V4.41797C194.368 3.75763 194.904 3.22168 195.564 3.22168H211.231ZM265.966 1.57715C266.626 1.57715 267.162 2.11212 267.162 2.77246V11.9072C267.851 10.836 268.794 10.0066 269.993 9.41992C271.217 8.83334 272.582 8.54004 274.087 8.54004C275.668 8.54004 277.097 8.88457 278.372 9.57324C279.647 10.2364 280.642 11.2439 281.356 12.5957C282.096 13.9475 282.466 15.5928 282.466 17.5312V28.6943C282.466 29.3545 281.931 29.8896 281.271 29.8896H280.218C279.558 29.8894 279.023 29.3544 279.022 28.6943V18.0293C279.022 15.9377 278.5 14.3429 277.454 13.2461C276.408 12.1238 274.98 11.5626 273.169 11.5625C271.333 11.5625 269.865 12.1365 268.769 13.2842C267.697 14.432 267.162 16.1033 267.162 18.2969V28.6943C267.162 29.3546 266.626 29.8896 265.966 29.8896H264.876C264.216 29.8896 263.68 29.3546 263.68 28.6943V2.77246C263.68 2.11212 264.216 1.57715 264.876 1.57715H265.966ZM59.9668 13.0547C58.972 13.0547 58.0537 13.2976 57.2119 13.7822C56.3702 14.2669 55.6812 14.981 55.1455 15.9248C54.6355 16.843 54.3809 17.9397 54.3809 19.2148C54.3809 20.4902 54.6354 21.6128 55.1455 22.582C55.6812 23.5258 56.3702 24.2526 57.2119 24.7627C58.0791 25.2728 58.9975 25.5283 59.9668 25.5283C60.9615 25.5283 61.8926 25.2854 62.7598 24.8008C63.6269 24.2906 64.3151 23.5764 64.8252 22.6582C65.3353 21.7146 65.5908 20.5927 65.5908 19.292C65.5908 17.9911 65.3353 16.8812 64.8252 15.9629C64.3151 15.0193 63.6269 14.3049 62.7598 13.8203C61.8926 13.3102 60.9615 13.0547 59.9668 13.0547ZM225.628 11.5244C223.868 11.5244 222.363 12.0857 221.113 13.208C219.889 14.3303 219.187 15.8864 219.009 17.876H232.247C232.247 16.5496 231.954 15.4145 231.367 14.4707C230.781 13.5015 229.977 12.7747 228.957 12.29C227.962 11.7799 226.852 11.5244 225.628 11.5244ZM10.4834 12.749C9.15702 12.749 8.03447 13.1574 7.11621 13.9736C6.22357 14.7643 5.67477 15.8735 5.4707 17.3018H15.5332C15.5077 15.9245 15.0102 14.8279 14.041 14.0117C13.0718 13.1701 11.8861 12.7491 10.4834 12.749ZM121.268 12.749C119.941 12.749 118.819 13.1574 117.9 13.9736C117.008 14.7643 116.46 15.8736 116.256 17.3018H126.318C126.293 15.9246 125.795 14.8279 124.826 14.0117C123.857 13.17 122.67 12.749 121.268 12.749ZM144.882 12.749C143.555 12.749 142.433 13.1574 141.515 13.9736C140.622 14.7643 140.073 15.8735 139.869 17.3018H149.932C149.906 15.9245 149.409 14.8279 148.439 14.0117C147.47 13.1701 146.285 12.7491 144.882 12.749Z" fill="white"/>
<path d="M79.554 5.58982L79.3606 6.03354C79.219 6.35837 78.7695 6.35837 78.628 6.03354L78.4346 5.58982C78.0899 4.79887 77.4686 4.16912 76.6938 3.82457L76.0977 3.55969C75.7754 3.41637 75.7754 2.9476 76.0977 2.80448L76.6605 2.55438C77.4555 2.20101 78.0877 1.54785 78.4266 0.730007L78.6252 0.250557C78.7636 -0.0835189 79.2253 -0.0835189 79.3637 0.250557L79.5624 0.730007C79.9014 1.54785 80.5336 2.20101 81.3286 2.55438L81.8914 2.80448C82.2137 2.9478 82.2137 3.41658 81.8914 3.55969L81.2953 3.82457C80.5198 4.16891 79.8988 4.79887 79.554 5.58982Z" fill="url(#paint0_linear_167_259)"/>
<defs>
<linearGradient id="paint0_linear_167_259" x1="82.6816" y1="0.874235" x2="78.0023" y2="3.58734" gradientUnits="userSpaceOnUse">
<stop offset="0.176" stop-color="#0052CC"/>
<stop offset="1" stop-color="#2684FF"/>
</linearGradient>
</defs>
</svg>
